<svg xmlns="http://www.w3.org/2000/svg" enable-background="new 0 0 24 24" viewBox="0 0 24 24"><path d="M12.561,0.258h-0.01C11.387,0.239,10.388,0.524,9.582,1C8.787,0.721,7.14,0.24,5.403,0.336C4.194,0.403,2.874,0.775,1.896,1.82C0.921,2.865,0.406,4.483,0.514,6.683c0.03,0.606,0.2,1.596,0.484,2.879c0.284,1.281,0.682,2.782,1.179,4.151c0.497,1.37,1.041,2.601,1.892,3.437c0.425,0.419,1.01,0.771,1.699,0.742c0.484-0.021,0.921-0.236,1.299-0.553c0.183,0.245,0.38,0.353,0.559,0.451C7.85,17.915,8.07,18,8.297,18.056c0.408,0.104,1.107,0.241,1.924,0.101c0.278-0.047,0.572-0.139,0.864-0.271c0.011,0.33,0.024,0.653,0.037,0.981c0.04,1.036,0.066,1.993,0.373,2.832c0.049,0.137,0.185,0.843,0.718,1.466c0.534,0.624,1.579,1.013,2.769,0.755c0.839-0.182,1.907-0.51,2.617-1.532c0.701-1.01,1.017-2.459,1.08-4.809c0.016-0.127,0.035-0.235,0.054-0.336l0.167,0.015h0.02c0.896,0.041,1.868-0.088,2.68-0.47c0.719-0.337,1.263-0.678,1.66-1.283c0.099-0.15,0.207-0.331,0.237-0.642c0.03-0.313-0.147-0.8-0.441-1.026c-0.588-0.452-0.957-0.28-1.354-0.197c-0.352,0.083-0.76,0.136-1.179,0.146h-0.008c1.142-1.948,1.961-4.015,2.428-5.845c0.277-1.08,0.432-2.076,0.445-2.948s-0.057-1.642-0.573-2.309c-1.611-2.084-3.876-2.66-5.628-2.681l-0.163-0.001V0c-0.953,0.008-1.871,0.152-2.741,0.409L14.24,0.423C13.738,0.329,13.155,0.269,12.561,0.258L12.561,0.258z"/><path fill="#FFF" d="M14.93,0.895c0.612-0.151,1.316-0.242,2.04-0.251h0.006l0.001-0.004c1.658-0.017,3.775,0.454,5.296,2.422c0.342,0.441,0.443,1.088,0.431,1.884c-0.013,0.795-0.158,1.747-0.424,2.79c-0.516,2.02-1.49,4.375-2.862,6.488l0.151,0.084l0.005,0.002c0.286,0.119,0.939,0.223,2.242-0.048c0.328-0.07,0.568-0.116,0.817,0.075c0.112,0.097,0.182,0.238,0.182,0.398l-0.001,0.029v-0.001c-0.015,0.128-0.06,0.241-0.128,0.337c-0.252,0.383-0.749,0.746-1.386,1.045c-0.564,0.266-1.373,0.404-2.09,0.413c-0.359,0.004-0.691-0.025-0.973-0.113l-0.018-0.007c-0.109,1.06-0.358,3.152-0.521,4.107c-0.13,0.77-0.358,1.382-0.794,1.84c-0.435,0.458-1.05,0.734-1.878,0.914c-1.025,0.224-1.773-0.017-2.255-0.428c-0.481-0.41-0.701-0.954-0.833-1.287c-0.091-0.23-0.138-0.528-0.184-0.926c-0.045-0.398-0.079-0.885-0.101-1.433c-0.022-0.559-0.034-1.215-0.034-1.873c0-0.218,0.002-0.434,0.004-0.65c-0.413,0.383-0.935,0.654-1.515,0.757l-0.018,0.003c-0.681,0.117-1.288,0.002-1.651-0.09c-0.193-0.049-0.361-0.118-0.519-0.204c-0.166-0.091-0.324-0.194-0.43-0.394c-0.042-0.077-0.067-0.17-0.067-0.268l0.011-0.114c0.036-0.133,0.111-0.248,0.214-0.328l0.001-0.001c0.195-0.161,0.454-0.251,0.844-0.333c0.71-0.148,0.958-0.249,1.109-0.37c0.128-0.104,0.274-0.315,0.531-0.622l-0.003-0.038v-0.003c-0.485-0.013-0.934-0.146-1.329-0.366l0.015,0.007c-0.148,0.158-0.905,0.968-1.827,2.092C6.601,16.9,6.172,17.17,5.72,17.19c-0.453,0.018-0.861-0.211-1.209-0.553c-0.695-0.683-1.249-1.857-1.732-3.185c-0.482-1.328-0.875-2.807-1.153-4.068c-0.28-1.26-0.444-2.275-0.468-2.766c-0.104-2.082,0.377-3.485,1.203-4.37c0.825-0.885,1.957-1.219,3.061-1.284C7.402,0.85,9.283,1.548,9.663,1.698C10.397,1.194,11.341,0.88,12.52,0.9c0.594,0.009,1.165,0.088,1.711,0.229l-0.05-0.011L14.2,1.109c0.191-0.072,0.435-0.146,0.685-0.205L14.93,0.895L14.93,0.895z"/><path d="M12.44,0.257c-1.116,0-2.078,0.283-2.858,0.743C8.857,0.745,7.424,0.324,5.86,0.324c-0.151,0-0.304,0.004-0.457,0.012C4.194,0.403,2.874,0.775,1.896,1.82C0.921,2.865,0.406,4.483,0.514,6.683c0.03,0.606,0.2,1.596,0.484,2.879c0.284,1.281,0.682,2.782,1.179,4.151c0.497,1.37,1.041,2.601,1.892,3.437c0.409,0.403,0.966,0.744,1.622,0.744c0.026,0,0.052,0,0.078-0.002c0.484-0.021,0.921-0.236,1.299-0.553c0.183,0.245,0.38,0.353,0.559,0.451C7.85,17.915,8.07,18,8.297,18.056c0.284,0.072,0.708,0.161,1.215,0.161c0.222,0,0.46-0.017,0.709-0.06c0.278-0.047,0.572-0.139,0.864-0.271c0.011,0.33,0.024,0.653,0.037,0.981c0.04,1.036,0.066,1.993,0.373,2.832c0.049,0.137,0.185,0.843,0.718,1.466c0.42,0.49,1.155,0.835,2.029,0.835c0.095,0,0.191-0.004,0.288-0.012v-0.613c-0.088,0.007-0.173,0.01-0.256,0.01c-0.649,0-1.149-0.21-1.504-0.513c-0.481-0.41-0.701-0.954-0.833-1.287c-0.091-0.23-0.138-0.528-0.184-0.926c-0.045-0.398-0.079-0.885-0.101-1.433c-0.022-0.559-0.034-1.215-0.034-1.873c0-0.218,0.002-0.434,0.004-0.65c-0.413,0.383-0.935,0.654-1.515,0.757l-0.018,0.003c-0.206,0.036-0.406,0.05-0.594,0.05c-0.433,0-0.804-0.075-1.057-0.139c-0.193-0.049-0.361-0.118-0.519-0.204c-0.166-0.091-0.324-0.194-0.43-0.394c-0.042-0.077-0.067-0.17-0.067-0.268l0.011-0.114c0.036-0.133,0.111-0.248,0.214-0.328l0.001-0.001c0.195-0.161,0.454-0.251,0.844-0.333c0.71-0.148,0.958-0.249,1.109-0.37c0.128-0.104,0.274-0.315,0.531-0.622l-0.003-0.038v-0.003c-0.479-0.013-0.924-0.142-1.315-0.358c-0.149,0.16-0.905,0.969-1.827,2.091C6.601,16.9,6.172,17.17,5.72,17.19c-0.017,0.001-0.034,0.001-0.051,0.001c-0.432,0-0.823-0.225-1.158-0.554c-0.695-0.683-1.249-1.857-1.732-3.185c-0.482-1.328-0.875-2.807-1.153-4.068c-0.28-1.26-0.444-2.275-0.468-2.766c-0.104-2.082,0.377-3.485,1.203-4.37c0.825-0.885,1.957-1.219,3.061-1.284C5.57,0.955,5.718,0.951,5.865,0.951c1.811,0,3.447,0.608,3.799,0.747C10.374,1.21,11.283,0.9,12.412,0.9c0.036,0,0.071,0,0.108,0.001c0.576,0.009,1.131,0.083,1.663,0.217L14.2,1.109c0.098-0.037,0.211-0.075,0.331-0.11V0.339c-0.083,0.022-0.166,0.046-0.249,0.07L14.24,0.423c-0.502-0.094-1.085-0.153-1.679-0.165h-0.01C12.514,0.257,12.477,0.257,12.44,0.257L12.44,0.257z"/><path fill="#DEDEDE" d="M12.412,0.9c-1.129,0-2.038,0.31-2.749,0.799C9.312,1.559,7.676,0.951,5.865,0.951c-0.147,0-0.294,0.004-0.443,0.013c-1.104,0.065-2.235,0.4-3.061,1.284c-0.825,0.885-1.306,2.288-1.203,4.37c0.024,0.49,0.189,1.506,0.468,2.766c0.278,1.261,0.671,2.74,1.153,4.068c0.483,1.328,1.037,2.503,1.732,3.185c0.335,0.329,0.725,0.554,1.158,0.554c0.017,0,0.034,0,0.051-0.001c0.452-0.02,0.881-0.289,1.269-0.76c0.921-1.123,1.678-1.932,1.827-2.091c0.391,0.216,0.836,0.345,1.315,0.358v0.003l0.003,0.038c-0.257,0.308-0.402,0.518-0.531,0.622c-0.151,0.121-0.399,0.222-1.109,0.37c-0.39,0.082-0.649,0.172-0.844,0.333l-0.001,0.001c-0.103,0.08-0.178,0.194-0.214,0.328l-0.011,0.114c0,0.098,0.024,0.191,0.067,0.268c0.105,0.2,0.264,0.302,0.43,0.394c0.157,0.086,0.326,0.155,0.519,0.204c0.253,0.064,0.625,0.139,1.057,0.139c0.188,0,0.388-0.014,0.594-0.05l0.018-0.003c0.58-0.103,1.102-0.373,1.515-0.757c-0.002,0.217-0.004,0.432-0.004,0.65c0,0.658,0.012,1.314,0.034,1.873c0.023,0.549,0.056,1.035,0.101,1.433c0.046,0.398,0.093,0.696,0.184,0.926c0.132,0.333,0.353,0.877,0.833,1.287c0.355,0.303,0.855,0.513,1.504,0.513c0.083,0,0.168-0.003,0.256-0.01v-0.671c-0.103,0.012-0.199,0.017-0.29,0.017c-0.485,0-0.802-0.156-1.042-0.36c-0.334-0.285-0.518-0.704-0.645-1.025c-0.039-0.096-0.099-0.379-0.141-0.753c-0.041-0.367-0.074-0.833-0.097-1.359c-0.025-0.693-0.04-1.388-0.04-2.088c0-0.59,0.011-1.177,0.026-1.677v-0.012l-0.019-0.115c-0.014-0.099-0.037-0.195-0.07-0.285c-0.126-0.339-0.358-0.637-0.695-0.779c-0.099-0.043-0.256-0.111-0.457-0.111c-0.025,0-0.051,0.001-0.077,0.003l-0.127,0.026l0.016-0.067c0.093-0.345,0.205-0.683,0.311-0.947c0.336-0.914,1.247-2.125,0.552-5.382c-0.145-0.678-0.546-1.125-1.029-1.314c-0.244-0.096-0.5-0.135-0.758-0.135c-0.254,0-0.51,0.038-0.756,0.096C8.694,6.552,8.231,6.752,7.879,6.952L7.866,6.96C7.912,6.357,8.03,5.466,8.372,4.546C8.661,3.771,9.1,3.014,9.755,2.461c0.635-0.535,1.473-0.891,2.64-0.894v0.002h0.114c0.752,0.012,1.423,0.138,2.021,0.342V0.999c-0.12,0.036-0.232,0.073-0.331,0.11l-0.017,0.008C13.651,0.984,13.096,0.909,12.52,0.9C12.484,0.9,12.448,0.9,12.412,0.9L12.412,0.9z"/><polygon points="21.953 14.917 21.957 14.913 21.951 14.917 21.952 14.917"/><polygon fill="#32648D" points="17.58 4.151 17.586 4.16 17.593 4.168"/><path fill="#32648D" d="M12.317 19.299c-.001-.025 0-.051-.001-.076 0-.01-.001-.017-.001-.027L12.317 19.299zM15.3 1.502l-.057.011c.019-.004.04-.006.059-.01C15.301 1.503 15.301 1.502 15.3 1.502zM11.622 16.666c0 .012 0 .023 0 .035l0 0V16.666z"/><polygon fill="#32648D" points="7.851 7.77 7.853 7.769 7.856 7.766"/><polygon fill="#32648D" points="9.321 7.093 9.331 7.092 9.339 7.089"/><polygon fill="#32648D" points="10.047 7.391 10.045 7.391 10.045 7.391"/><path fill="#32648D" d="M8.177,7.55c0.007-0.004,0.014-0.006,0.02-0.01C8.198,7.54,8.199,7.539,8.2,7.538L8.177,7.55z"/><path fill="#32648D" d="M7.077,11.308c0-0.181,0.014-0.357,0.04-0.529l-0.002,0.018c0.102-0.739,0.115-1.43,0.104-1.976C7.207,8.289,7.169,7.936,7.169,7.714V7.705v-0.01V7.69L7.168,7.684V7.683V7.678c0-1.184,0.208-2.32,0.585-3.372c0.277-0.743,0.688-1.499,1.305-2.11C8.453,1.993,7.375,1.686,6.21,1.627c-0.111-0.006-0.243-0.01-0.375-0.01H5.835v0.001c-0.126,0-0.25,0.004-0.375,0.011C4.461,1.687,3.518,1.98,2.844,2.704C2.168,3.428,1.724,4.615,1.82,6.58c0.019,0.372,0.179,1.414,0.453,2.653c0.275,1.237,0.662,2.694,1.128,3.981c0.467,1.287,1.033,2.407,1.57,2.938c0.271,0.265,0.506,0.372,0.719,0.362c0.214-0.01,0.472-0.135,0.787-0.518c0.62-0.754,1.205-1.421,1.808-2.069l-0.02,0.022C7.536,13.303,7.077,12.36,7.077,11.308L7.077,11.308z"/><path fill="#2C577B" d="M5.433,1.63C4.445,1.693,3.512,1.987,2.844,2.704C2.168,3.428,1.724,4.615,1.82,6.58c0.019,0.372,0.179,1.414,0.453,2.653c0.275,1.237,0.662,2.694,1.128,3.981c0.467,1.287,1.033,2.407,1.57,2.938c0.166,0.162,0.319,0.265,0.461,0.319V1.63L5.433,1.63z"/><path fill="#32648D" d="M10.56,12.937c0.401-1.095,1.19-1.892,0.526-5.007c-0.109-0.51-0.324-0.716-0.621-0.831c-0.144-0.054-0.311-0.085-0.486-0.085H9.946l0.002,0.001C9.736,7.017,9.529,7.044,9.331,7.092c-0.42,0.105-0.79,0.256-1.134,0.448c-0.129,0.072-0.24,0.145-0.344,0.229L7.834,7.786c0.006,0.146,0.035,0.5,0.046,1.022c0.012,0.569-0.002,1.297-0.11,2.084c-0.236,1.71,0.99,3.126,2.43,3.128C10.284,13.668,10.422,13.312,10.56,12.937L10.56,12.937z M9.709,7.968L9.709,7.968l-0.115-0.16L9.591,7.803L9.55,7.655l0.002-0.03v0.001c0.015-0.107,0.103-0.164,0.189-0.195c0.078-0.026,0.167-0.04,0.26-0.04h0.044l-0.001-0.004L10.208,7.4c0.151,0.02,0.285,0.061,0.388,0.122l0.131,0.105l0.001,0.001l0.054,0.147l-0.001,0.024V7.798l-0.074,0.154l-0.139,0.129l-0.002,0.001C10.464,8.156,10.337,8.2,10.2,8.2l-0.08-0.005h0.003C9.957,8.167,9.815,8.085,9.709,7.968L9.709,7.968z"/><path fill="#2C577B" d="M9.321,7.094C8.905,7.2,8.538,7.349,8.197,7.54c-0.129,0.072-0.24,0.145-0.344,0.229L7.834,7.786c0.006,0.146,0.035,0.5,0.046,1.022c0.012,0.569-0.002,1.297-0.11,2.084c-0.186,1.346,0.534,2.509,1.551,2.945V7.094L9.321,7.094z"/><path fill="#32648D" d="M18.082,6.901c-0.671,0.009-1.047,0.183-1.245,0.413c-0.279,0.324-0.306,0.895-0.132,1.597c0.173,0.703,0.53,1.489,0.866,2.142c0.168,0.327,0.331,0.621,0.462,0.86c0.133,0.24,0.229,0.41,0.289,0.555c0.054,0.135,0.114,0.252,0.176,0.363c0.26-0.555,0.306-1.1,0.279-1.668c-0.034-0.703-0.195-1.422-0.172-2.15c0.027-0.851,0.193-1.405,0.207-2.063C18.593,6.918,18.339,6.901,18.082,6.901L18.082,6.901z M18.206,7.406l-0.001,0.008v0.01L18.169,7.55l0.001-0.001l-0.109,0.151c-0.097,0.109-0.229,0.185-0.377,0.211l-0.004,0.001l-0.07,0.004c-0.126,0-0.243-0.04-0.337-0.107l0.002,0.001l-0.128-0.117L17.147,7.69l-0.062-0.125V7.563l-0.001-0.016l0.042-0.112l0.114-0.09l0.001-0.001c0.096-0.054,0.224-0.094,0.369-0.115l0.158-0.014v0.003h0.049l0.178,0.022l0.136,0.055L18.206,7.406L18.206,7.406L18.206,7.406z"/><path fill="#2C577B" d="M17.622,6.938c-0.392,0.064-0.638,0.205-0.785,0.375c-0.279,0.324-0.306,0.895-0.132,1.597c0.173,0.703,0.53,1.489,0.866,2.142c0.017,0.033,0.034,0.066,0.051,0.099V7.914l-0.011,0.001c-0.126,0-0.243-0.04-0.337-0.107l0.002,0.001l-0.128-0.117L17.147,7.69l-0.062-0.125V7.563l-0.001-0.016l0.042-0.112l0.114-0.09l0.001-0.001c0.096-0.054,0.224-0.094,0.369-0.115l0.011-0.001V6.938L17.622,6.938z"/><path fill="#32648D" d="M18.991 14.728l.002.002v.001l-.003.001c-.145.053-.265.074-.365.12-.103.041-.186.115-.235.212l-.001.002c-.062.115-.116.319-.1.666l.142.068.004.001c.169.053.453.086.769.081.63-.007 1.406-.155 1.817-.35.354-.169.659-.373.93-.615-1.375.288-2.153.211-2.63.011C19.196 14.875 19.087 14.808 18.991 14.728L18.991 14.728zM18.115 3.752c.432.556.807 1.188 1.097 1.865l.021.055c.108.265.182.487.223.66l.039.236-.012.143-.006.014c.03.876-.184 1.47-.21 2.306-.02.605.133 1.318.171 2.095.036.731-.052 1.532-.52 2.32l.112.144c1.239-1.975 2.132-4.16 2.608-6.023.255-1.003.39-1.912.402-2.632.01-.721-.122-1.242-.291-1.46-1.326-1.717-3.12-2.153-4.623-2.165v.001h-.144c-.58.008-1.139.076-1.682.193C16.531 2.055 17.46 2.904 18.115 3.752L18.115 3.752z"/><path fill="#2C577B" d="M18.991 14.728l.002.002v.001l-.003.001c-.145.053-.265.074-.365.12-.103.041-.186.115-.235.212l-.001.002c-.062.115-.116.319-.1.666l.142.068.004.001c.158.049.415.081.705.081.021 0 .042 0 .063 0 .156-.002.322-.012.489-.03v-.81c-.141-.03-.264-.068-.371-.113C19.196 14.875 19.087 14.808 18.991 14.728L18.991 14.728zM17.127 1.31L17.127 1.31l-.144.001c-.58.008-1.139.076-1.682.193 1.229.551 2.159 1.401 2.814 2.249.432.556.807 1.188 1.097 1.865l.021.055c.108.265.182.487.223.66l.039.236-.012.143-.006.014c.03.876-.184 1.47-.21 2.306-.02.605.133 1.318.171 2.095.036.731-.052 1.532-.52 2.32l.112.144c.233-.371.453-.749.661-1.131V1.832C18.832 1.445 17.938 1.316 17.127 1.31L17.127 1.31z"/><path fill="#32648D" d="M11.262,14.885l-0.199-0.06H11.06v-0.002h-0.021c-0.052,0.005-0.128,0.023-0.276,0.188c-0.344,0.391-0.464,0.636-0.748,0.864c-0.284,0.229-0.652,0.35-1.387,0.503c-0.233,0.048-0.367,0.102-0.455,0.145l0.069,0.053c0.108,0.06,0.246,0.114,0.358,0.142c0.316,0.08,0.835,0.174,1.378,0.08c0.542-0.094,1.106-0.356,1.588-1.04c0.083-0.118,0.092-0.292,0.024-0.479C11.519,15.092,11.368,14.931,11.262,14.885L11.262,14.885z"/><path fill="#2C577B" d="M10.047,15.85c-0.01,0.009-0.02,0.017-0.031,0.026c-0.284,0.229-0.652,0.35-1.387,0.503c-0.233,0.048-0.367,0.102-0.455,0.145l0.069,0.053c0.108,0.06,0.246,0.114,0.358,0.142c0.222,0.056,0.544,0.119,0.904,0.119c0.153,0,0.312-0.011,0.473-0.039c0.023-0.004,0.046-0.008,0.069-0.013V15.85L10.047,15.85z"/><path fill="#32648D" d="M12.395,1.568V1.567c-1.167,0.003-2.005,0.359-2.64,0.894C9.1,3.014,8.661,3.771,8.372,4.546C8.03,5.466,7.912,6.357,7.866,6.96l0.013-0.008c0.352-0.2,0.816-0.401,1.312-0.516c0.496-0.116,1.03-0.151,1.514,0.039c0.484,0.189,0.884,0.636,1.029,1.314c0.695,3.257-0.216,4.468-0.552,5.382c-0.107,0.264-0.219,0.601-0.311,0.947l-0.016,0.067l0.127-0.026c0.237-0.021,0.423,0.06,0.534,0.108c0.338,0.142,0.569,0.44,0.695,0.779c0.033,0.089,0.056,0.186,0.07,0.285l0.019,0.115v0.012c-0.015,0.5-0.026,1.087-0.026,1.677c0,0.7,0.015,1.395,0.04,2.088c0.023,0.527,0.056,0.992,0.097,1.359c0.042,0.374,0.103,0.657,0.141,0.753c0.127,0.321,0.311,0.74,0.645,1.025c0.334,0.284,0.813,0.474,1.688,0.284c0.758-0.165,1.227-0.394,1.54-0.723c0.313-0.329,0.498-0.787,0.618-1.487c0.179-1.051,0.538-4.096,0.582-4.669c-0.019-0.432,0.043-0.764,0.18-1.017c0.14-0.26,0.358-0.419,0.545-0.505c0.094-0.043,0.182-0.072,0.254-0.093c-0.088-0.126-0.167-0.233-0.249-0.336l0.009,0.011c-0.259-0.317-0.48-0.679-0.647-1.07l-0.011-0.028c-0.1-0.209-0.185-0.367-0.274-0.522l0.021,0.039c-0.132-0.24-0.297-0.54-0.471-0.877c-0.348-0.675-0.727-1.493-0.923-2.29c-0.196-0.796-0.224-1.62,0.277-2.201c0.445-0.516,1.225-0.729,2.396-0.61c-0.034-0.104-0.055-0.192-0.113-0.331c-0.285-0.67-0.628-1.248-1.036-1.772c-0.993-1.282-2.598-2.551-5.076-2.592H12.395L12.395,1.568z"/><path fill="#2C577B" d="M12.395,1.567c-1.167,0.003-2.005,0.359-2.64,0.894C9.1,3.014,8.661,3.771,8.372,4.546C8.03,5.466,7.912,6.357,7.866,6.96l0.013-0.008c0.352-0.2,0.816-0.401,1.312-0.516c0.246-0.058,0.502-0.096,0.756-0.096c0.258,0,0.514,0.039,0.758,0.135c0.484,0.189,0.884,0.636,1.029,1.314c0.695,3.257-0.216,4.468-0.552,5.382c-0.107,0.264-0.219,0.601-0.311,0.947l-0.016,0.067l0.127-0.026c0.026-0.002,0.052-0.003,0.077-0.003c0.201,0,0.358,0.068,0.457,0.111c0.338,0.142,0.569,0.44,0.695,0.779c0.033,0.089,0.056,0.186,0.07,0.285l0.019,0.115v0.012c-0.015,0.5-0.026,1.087-0.026,1.677c0,0.7,0.015,1.395,0.04,2.088c0.023,0.527,0.056,0.992,0.097,1.359c0.042,0.374,0.103,0.657,0.141,0.753c0.127,0.321,0.311,0.74,0.645,1.025c0.241,0.205,0.557,0.36,1.042,0.36c0.091,0,0.187-0.005,0.29-0.017V1.911c-0.598-0.204-1.27-0.33-2.021-0.342h-0.114V1.567L12.395,1.567z"/></svg>